# xmcd
#
# Track frame offsets:
#	150
#	13405
#	29646
#	45656
#	67010
#	84551
#	99855
#	112640
#	125964
#	146805
#	167216
#	183069
#	198236
#	216170
#	242138
#	263202
#	283642
#	301492
#	320868
#	331524
#
# Disc length: 4709 seconds
#
# Revision: 1
# Processed by: cddbd v1.5.1PL0 Copyright (c) Steve Scherf et al.
# Submitted via: audiograbber 1.83.01
#
DISCID=29126314
DTITLE=Zubz - Listeners Digest
DYEAR=2004
DGENRE=Hip Hop
TTITLE0=The Listener
TTITLE1=Imagery
TTITLE2=Number 1
TTITLE3=Super Star
TTITLE4=Agony Haggz
TTITLE5=Move
TTITLE6=The Master
TTITLE7=Heavy 8 ft Tumi, Mawe2, H2O, ProVerb, Golden Shovel and Kaydo
TTITLE8=God In You
TTITLE9=The Legend of The Golden Mic
TTITLE10=I Write...
TTITLE11=Standing Ovation
TTITLE12=All I Need
TTITLE13=B.E.A.T
TTITLE14=I'm Here
TTITLE15=Handiende ft. Palesa
TTITLE16=Tladi (Ha O Cha O Che-Che) ft. Kgantshe
TTITLE17=I Understand... ft Nabunya
TTITLE18=Brand New Day
TTITLE19=Super Star (Remix)
EXTD=South African hip-hop
EXTT0=
EXTT1=
EXTT2=
EXTT3=
EXTT4=
EXTT5=
EXTT6=
EXTT7=
EXTT8=
EXTT9=
EXTT10=
EXTT11=
EXTT12=
EXTT13=
EXTT14=
EXTT15=
EXTT16=
EXTT17=
EXTT18=
EXTT19=
PLAYORDER=
